<!DOCTYPE svg PUBLIC "-//W3C//DTD SVG 1.1//EN" "http://www.w3.org/Graphics/SVG/1.1/DTD/svg11.dtd">
<!-- Uploaded to: SVG Repo, www.svgrepo.com, Transformed by: SVG Repo Mixer Tools -->
<svg fill="#ffffff" version="1.1" id="Capa_1" xmlns="http://www.w3.org/2000/svg" xmlns:xlink="http://www.w3.org/1999/xlink" viewBox="0 0 60 60" xml:space="preserve" width="800px" height="800px" stroke="#ffffff">
<g id="SVGRepo_bgCarrier" stroke-width="0"/>
<g id="SVGRepo_tracerCarrier" stroke-linecap="round" stroke-linejoin="round"/>
<g id="SVGRepo_iconCarrier"> <g> <g> <path d="M60,21.5v-4c0-2.2-1.8-4-4-4H4c-2.2,0-4,1.8-4,4v4c0,1.2,0.5,2.3,1.4,3c-0.8,0.7-1.4,1.8-1.4,3v15c0,2.2,1.8,4,4,4h52 c2.2,0,4-1.8,4-4v-15c0-1.2-0.5-2.3-1.4-3C59.5,23.8,60,22.7,60,21.5z M2,42.5v-15c0-1.1,0.9-2,2-2h35v19H4 C2.9,44.5,2,43.6,2,42.5z M58,27.5v15c0,1.1-0.9,2-2,2H41v-19h15C57.1,25.5,58,26.4,58,27.5z M4,23.5c-1.1,0-2-0.9-2-2v-4 c0-1.1,0.9-2,2-2h52c1.1,0,2,0.9,2,2v4c0,1.1-0.9,2-2,2H4z"/> <path d="M11,29.5c-2.8,0-5,2.2-5,5s2.2,5,5,5s5-2.2,5-5S13.8,29.5,11,29.5z M11,37.5c-1.7,0-3-1.3-3-3s1.3-3,3-3s3,1.3,3,3 S12.7,37.5,11,37.5z"/> <rect x="20" y="30.5" width="9" height="2"/> <rect x="20" y="35.5" width="15" height="2"/> <rect x="7" y="18.5" width="3" height="2"/> <rect x="13" y="18.5" width="3" height="2"/> <rect x="19" y="18.5" width="3" height="2"/> <rect x="25" y="18.5" width="3" height="2"/> <rect x="31" y="18.5" width="22" height="2"/> <path d="M46.7,40.5h5.5c1.5,0,2.8-1.3,2.8-2.8v-5.4c0-1.5-1.2-2.7-2.8-2.7h-5.5c-1.6,0-2.7,1.1-2.7,2.7v5.4 C44,39.3,45.2,40.5,46.7,40.5z M52.2,38.5h-5.5c-0.5,0-0.7-0.4-0.7-0.8v-1.2h7v1.2C53,38.1,52.6,38.5,52.2,38.5z M46.7,31.6h5.5 c0.4,0,0.8,0.2,0.8,0.7v2.2h-7v-2.2C46,31.9,46.3,31.6,46.7,31.6z"/> </g> </g> </g>
</svg>